<svg t="1577196630159" class="icon" viewBox="0 0 1024 1024" version="1.1" xmlns="http://www.w3.org/2000/svg" p-id="5700" width="32" height="32"><path d="M612.17938672 340.54439486H260.26057813c-5.55330674 0-10.0512334-12.33788906-10.05123341-27.55294278s4.49792666-27.55294365 10.05123341-27.55294365h351.91880859c5.55330674 0 10.0512334 12.33788906 10.0512334 27.55294365s-4.4853627 27.55294365-10.0512334 27.55294277zM638.99105117 505.88718382H261.01442041c-5.96792021 0-10.80507568-12.33788906-10.80507568-27.55294278s4.83715635-27.55294365 10.80507568-27.55294365h377.97663076c5.96792021 0 10.80507568 12.33788906 10.80507656 27.55294365s-4.83715635 27.55294365-10.80507656 27.55294278zM612.17938672 671.22997278H260.26057813c-5.55330674 0-10.0512334-12.33788906-10.05123341-27.55294277s4.49792666-27.55294365 10.05123341-27.55294366h351.91880859c5.55330674 0 10.0512334 12.33788906 10.0512334 27.55294366s-4.4853627 27.55294365-10.0512334 27.55294277z" fill="" p-id="5701"></path><path d="M706.12072666 83.33333333H190.63065869A64.44097031 64.44097031 0 0 0 126.18968926 147.77430364v644.34687891a64.44097031 64.44097031 0 0 0 64.44096943 64.44097031h515.49006797a64.44097031 64.44097031 0 0 0 64.44096943-64.44097031V147.77430364A64.44097031 64.44097031 0 0 0 706.12072666 83.33333333z m6.2820211 676.56108252a32.21420273 32.21420273 0 0 1-32.21420362 32.21420274H216.08540791a32.21420273 32.21420273 0 0 1-32.21420361-32.21420274V179.98850638a32.21420273 32.21420273 0 0 1 32.21420361-32.21420274h464.58057041a32.21420273 32.21420273 0 0 1 32.21420273 32.21420274z" fill="" p-id="5702"></path><path d="M854.64026387 244.41691185a32.21420273 32.21420273 0 0 0-21.74835674 32.21420361v545.60607539A96.65517305 96.65517305 0 0 1 736.23673408 918.84210716H319.50003448a32.23933066 32.23933066 0 1 0-1.60819718 64.44097031h434.94199629a144.97647714 144.97647714 0 0 0 144.97647715-144.93878526V274.54548411a32.21420273 32.21420273 0 0 0-43.17004688-30.1537002z" fill="" p-id="5703"></path></svg>